<?xml version="1.0" encoding="UTF-8"?>
<!DOCTYPE svg PUBLIC "-//W3C//DTD SVG 1.1//EN" "http://www.w3.org/Graphics/SVG/1.1/DTD/svg11.dtd">
<svg xmlns="http://www.w3.org/2000/svg" version="1.1" width="259px" height="39px" style="shape-rendering:geometricPrecision; text-rendering:geometricPrecision; image-rendering:optimizeQuality; fill-rule:evenodd; clip-rule:evenodd" xmlns:xlink="http://www.w3.org/1999/xlink">
<g><path style="opacity:0.041" fill="#ecedfd" d="M 24.5,-0.5 C 25.5,-0.5 26.5,-0.5 27.5,-0.5C 28.6455,1.66716 30.4788,3.00049 33,3.5C 33.6667,5.5 33.6667,7.5 33,9.5C 30.1171,10.6093 27.6171,12.276 25.5,14.5C 24.7025,14.0431 24.3691,13.3764 24.5,12.5C 22.3144,10.9007 20.3144,9.06737 18.5,7C 21.093,4.91423 23.093,2.41423 24.5,-0.5 Z"/></g>
<g><path style="opacity:0.492" fill="#d5d0f9" d="M 101.5,5.5 C 98.8333,4.16667 96.1667,4.16667 93.5,5.5C 94.3339,4.2521 95.6672,3.58544 97.5,3.5C 99.3328,3.58544 100.666,4.2521 101.5,5.5 Z"/></g>
<g><path style="opacity:0.875" fill="#aa9ef0" d="M 130.5,4.5 C 126.131,4.46716 121.798,4.80049 117.5,5.5C 119.634,3.96656 122.134,3.29989 125,3.5C 127.033,3.50558 128.866,3.83891 130.5,4.5 Z"/></g>
<g><path style="opacity:0.5" fill="#cbc5f5" d="M 141.5,4.5 C 147.31,3.51045 153.31,3.17711 159.5,3.5C 159.5,5.16667 159.5,6.83333 159.5,8.5C 155.5,8.5 151.5,8.5 147.5,8.5C 147.5,10.5 147.5,12.5 147.5,14.5C 147.167,14.5 146.833,14.5 146.5,14.5C 146.5,12.5 146.5,10.5 146.5,8.5C 150.298,7.51658 154.298,7.18325 158.5,7.5C 158.5,6.5 158.5,5.5 158.5,4.5C 156.5,4.5 154.5,4.5 152.5,4.5C 149.167,4.5 145.833,4.5 142.5,4.5C 142.167,4.5 141.833,4.5 141.5,4.5 Z"/></g>
<g><path style="opacity:0.627" fill="#b6acf3" d="M 240.5,4.5 C 242.134,3.83891 243.967,3.50558 246,3.5C 248.866,3.29989 251.366,3.96656 253.5,5.5C 249.202,4.80049 244.869,4.46716 240.5,4.5 Z"/></g>
<g><path style="opacity:0.024" fill="#fefefe" d="M 4.5,4.5 C 5.52502,4.89657 5.69169,5.56323 5,6.5C 4.53566,5.90558 4.36899,5.23891 4.5,4.5 Z"/></g>
<g><path style="opacity:0.175" fill="#f4f2fe" d="M 41.5,4.5 C 43.2646,3.53862 45.2646,3.20528 47.5,3.5C 47.8266,12.6822 47.4933,21.6822 46.5,30.5C 46.5,30.1667 46.5,29.8333 46.5,29.5C 46.8261,20.9832 46.4927,12.6499 45.5,4.5C 44.5,4.5 43.5,4.5 42.5,4.5C 42.1667,4.5 41.8333,4.5 41.5,4.5 Z"/></g>
<g><path style="opacity:0.975" fill="#8571f0" d="M 130.5,4.5 C 131.492,4.32842 132.158,4.66175 132.5,5.5C 133.038,7.11723 133.371,8.7839 133.5,10.5C 132.828,11.2674 131.995,11.9341 131,12.5C 130.601,12.2716 130.435,11.9382 130.5,11.5C 130.5,9.5 129.5,8.5 127.5,8.5C 125.097,8.44805 122.764,8.78138 120.5,9.5C 120.719,8.32496 120.386,7.32496 119.5,6.5C 117.814,7.85689 116.148,9.19022 114.5,10.5C 114.5,9.83333 114.5,9.16667 114.5,8.5C 115.833,7.83333 116.833,6.83333 117.5,5.5C 121.798,4.80049 126.131,4.46716 130.5,4.5 Z"/></g>
<g><path style="opacity:0.271" fill="#ebe9fe" d="M 178.5,4.5 C 177.167,4.5 175.833,4.5 174.5,4.5C 171.167,4.5 167.833,4.5 164.5,4.5C 164.5,12.5 164.5,20.5 164.5,28.5C 164.5,29.1667 164.5,29.8333 164.5,30.5C 163.507,21.6822 163.173,12.6822 163.5,3.5C 168.695,3.17949 173.695,3.51283 178.5,4.5 Z"/></g>
<g><path style="opacity:0.97" fill="#6f5ff2" d="M 174.5,4.5 C 173.082,6.30794 171.082,6.97461 168.5,6.5C 168.19,9.7131 168.523,12.7131 169.5,15.5C 169.5,15.8333 169.5,16.1667 169.5,16.5C 168.397,20.7659 167.064,24.7659 165.5,28.5C 165.167,28.5 164.833,28.5 164.5,28.5C 164.5,20.5 164.5,12.5 164.5,4.5C 167.833,4.5 171.167,4.5 174.5,4.5 Z"/></g>
<g><path style="opacity:0.949" fill="#7772f0" d="M 24.5,12.5 C 24.3146,10.8042 23.4813,9.47088 22,8.5C 21.9099,5.53768 23.2432,3.20435 26,1.5C 27.1861,3.67655 29.0194,4.67655 31.5,4.5C 31.6495,5.55198 31.4828,6.55198 31,7.5C 28.8156,9.28778 26.649,10.9544 24.5,12.5 Z"/></g>
<g><path style="opacity:0.937" fill="#7a6aeb" d="M 61.5,5.5 C 62.1098,6.39105 62.4431,7.39105 62.5,8.5C 62.1667,8.5 61.8333,8.5 61.5,8.5C 59.7179,7.28043 57.7179,6.61377 55.5,6.5C 55.3339,12.1764 55.5006,17.8431 56,23.5C 56.1489,19.8675 56.9823,16.5341 58.5,13.5C 58.5,14.5 58.5,15.5 58.5,16.5C 58.5,21.1667 58.5,25.8333 58.5,30.5C 57.1667,30.5 55.8333,30.5 54.5,30.5C 54.5,21.8333 54.5,13.1667 54.5,4.5C 56.9496,4.29803 59.283,4.63137 61.5,5.5 Z"/></g>
<g><path style="opacity:0.902" fill="#8979e9" d="M 174.5,4.5 C 175.833,4.5 177.167,4.5 178.5,4.5C 179.492,4.32842 180.158,4.66175 180.5,5.5C 180.5,6.16667 180.5,6.83333 180.5,7.5C 178.804,5.87099 177.804,6.20432 177.5,8.5C 176.833,8.5 176.167,8.5 175.5,8.5C 173.5,8.5 171.5,8.5 169.5,8.5C 169.5,10.8333 169.5,13.1667 169.5,15.5C 168.523,12.7131 168.19,9.7131 168.5,6.5C 171.082,6.97461 173.082,6.30794 174.5,4.5 Z"/></g>
<g><path style="opacity:0.171" fill="#f1eefe" d="M 188.5,4.5 C 190.265,3.53862 192.265,3.20528 194.5,3.5C 194.5,10.8333 194.5,18.1667 194.5,25.5C 198.371,25.185 202.038,25.5184 205.5,26.5C 205.167,26.5 204.833,26.5 204.5,26.5C 201.167,26.5 197.833,26.5 194.5,26.5C 193.508,19.3524 193.175,12.0191 193.5,4.5C 191.833,4.5 190.167,4.5 188.5,4.5 Z"/></g>
<g><path style="opacity:0.272" fill="#efedfe" d="M 231.5,4.5 C 231.167,4.5 230.833,4.5 230.5,4.5C 229.5,4.5 228.5,4.5 227.5,4.5C 226.672,10.6534 226.172,16.9867 226,23.5C 225.292,24.3805 224.458,25.0472 223.5,25.5C 224.227,22.3657 224.894,19.1991 225.5,16C 225.102,11.9267 225.102,7.76005 225.5,3.5C 227.735,3.20528 229.735,3.53862 231.5,4.5 Z"/></g>
<g><path style="opacity:0.565" fill="#dad5f8" d="M 240.5,4.5 C 239.833,5.83333 238.833,6.83333 237.5,7.5C 237.5,5.5 238.5,4.5 240.5,4.5 Z"/></g>
<g><path style="opacity:0.881" fill="#9d8fea" d="M 253.5,5.5 C 255.688,6.65177 255.688,8.15177 253.5,10C 250.968,10.0032 248.468,9.50323 246,8.5C 244.744,8.6483 243.577,8.98163 242.5,9.5C 242.685,7.1104 244.018,6.1104 246.5,6.5C 248.841,7.18223 251.174,7.84889 253.5,8.5C 253.5,7.5 253.5,6.5 253.5,5.5 Z"/></g>
<g><path style="opacity:0.49" fill="#e0dbfd" d="M 117.5,5.5 C 116.833,6.83333 115.833,7.83333 114.5,8.5C 114.5,6.5 115.5,5.5 117.5,5.5 Z"/></g>
<g><path style="opacity:0.933" fill="#725ff7" d="M 152.5,4.5 C 154.5,4.5 156.5,4.5 158.5,4.5C 158.5,5.5 158.5,6.5 158.5,7.5C 154.298,7.18325 150.298,7.51658 146.5,8.5C 145.143,9.59026 144.143,10.9236 143.5,12.5C 143.5,10.1667 143.5,7.83333 143.5,5.5C 146.713,5.81 149.713,5.47667 152.5,4.5 Z"/></g>
<g><path style="opacity:1" fill="#7f6bf2" d="M 240.5,4.5 C 244.869,4.46716 249.202,4.80049 253.5,5.5C 253.5,6.5 253.5,7.5 253.5,8.5C 251.174,7.84889 248.841,7.18223 246.5,6.5C 244.018,6.1104 242.685,7.1104 242.5,9.5C 242.229,11.3797 242.896,12.713 244.5,13.5C 244.5,13.8333 244.5,14.1667 244.5,14.5C 244.53,15.4972 244.03,16.1639 243,16.5C 241.862,16.0109 240.695,15.6775 239.5,15.5C 238.833,15.5 238.167,15.5 237.5,15.5C 236.167,12.8333 236.167,10.1667 237.5,7.5C 238.833,6.83333 239.833,5.83333 240.5,4.5 Z"/></g>
<g><path style="opacity:0.92" fill="#705efd" d="M 45.5,5.5 C 45.5,10.8333 45.5,16.1667 45.5,21.5C 44.71,22.6085 44.21,23.9419 44,25.5C 43.8333,22.1667 43.6667,18.8333 43.5,15.5C 43.5136,11.7614 44.1803,8.42805 45.5,5.5 Z"/></g>
<g><path style="opacity:0.938" fill="#6e5cfc" d="M 61.5,8.5 C 61.9227,10.7812 61.256,12.4479 59.5,13.5C 59.1667,12.1667 58.8333,12.1667 58.5,13.5C 56.9823,16.5341 56.1489,19.8675 56,23.5C 55.5006,17.8431 55.3339,12.1764 55.5,6.5C 57.7179,6.61377 59.7179,7.28043 61.5,8.5 Z"/></g>
<g><path style="opacity:0.929" fill="#b6abef" d="M 93.5,5.5 C 93.8799,7.69798 93.2132,9.36465 91.5,10.5C 91.7959,8.59699 92.4625,6.93033 93.5,5.5 Z"/></g>
<g><path style="opacity:0.702" fill="#d5cff7" d="M 127.5,8.5 C 129.5,8.5 130.5,9.5 130.5,11.5C 129.167,10.8333 128.167,9.83333 127.5,8.5 Z"/></g>
<g><path style="opacity:0.976" fill="#afa5e1" d="M 132.5,5.5 C 135.726,6.87674 136.059,8.54341 133.5,10.5C 133.371,8.7839 133.038,7.11723 132.5,5.5 Z"/></g>
<g><path style="opacity:0.999" fill="#6554fc" d="M 211.5,4.5 C 212.167,4.5 212.833,4.5 213.5,4.5C 213.824,11.3543 213.491,18.021 212.5,24.5C 211.577,17.891 211.244,11.2244 211.5,4.5 Z"/></g>
<g><path style="opacity:0.514" fill="#d4d0f7" d="M 80.5,30.5 C 80.5,21.8333 80.5,13.1667 80.5,4.5C 78.0504,4.29803 75.717,4.63137 73.5,5.5C 75.6353,3.63105 78.3019,2.96438 81.5,3.5C 81.8266,12.6822 81.4933,21.6822 80.5,30.5 Z"/></g>
<g><path style="opacity:0.924" fill="#7e6bf4" d="M 101.5,5.5 C 102.404,6.20895 102.737,7.20895 102.5,8.5C 102.517,10.5648 102.85,12.5648 103.5,14.5C 102.604,13.4937 101.938,13.4937 101.5,14.5C 100.978,12.7809 99.9779,11.4475 98.5,10.5C 97.3774,9.24258 96.7107,9.57591 96.5,11.5C 96.233,13.9653 95.5664,16.2986 94.5,18.5C 93.8333,18.5 93.5,18.8333 93.5,19.5C 92.7741,18.2348 92.7741,16.7348 93.5,15C 93.3158,13.6244 92.6491,12.7911 91.5,12.5C 91.5,12.1667 91.5,11.8333 91.5,11.5C 91.5,11.1667 91.5,10.8333 91.5,10.5C 93.2132,9.36465 93.8799,7.69798 93.5,5.5C 96.1667,4.16667 98.8333,4.16667 101.5,5.5 Z"/></g>
<g><path style="opacity:0.922" fill="#7467e2" d="M 45.5,4.5 C 46.4927,12.6499 46.8261,20.9832 46.5,29.5C 45.209,29.7373 44.209,29.404 43.5,28.5C 45.3435,26.7211 46.0102,24.3878 45.5,21.5C 45.5,16.1667 45.5,10.8333 45.5,5.5C 45.5,5.16667 45.5,4.83333 45.5,4.5 Z"/></g>
<g><path style="opacity:0.357" fill="#e4e2ff" d="M 98.5,10.5 C 98.5,11.1667 98.5,11.8333 98.5,12.5C 97.8333,12.1667 97.1667,11.8333 96.5,11.5C 96.7107,9.57591 97.3774,9.24258 98.5,10.5 Z"/></g>
<g><path style="opacity:0.929" fill="#bbaef3" d="M 120.5,9.5 C 118.746,13.2576 118.079,17.2576 118.5,21.5C 117.527,19.0521 117.194,16.3854 117.5,13.5C 117.5,12.1667 117.5,10.8333 117.5,9.5C 118.5,9.5 119.5,9.5 120.5,9.5 Z"/></g>
<g><path style="opacity:0.82" fill="#b9b0e8" d="M 180.5,5.5 C 181.458,5.9528 182.292,6.61947 183,7.5C 183.805,10.6965 183.638,13.6965 182.5,16.5C 182.664,13.8127 182.497,11.146 182,8.5C 181.617,7.94404 181.117,7.61071 180.5,7.5C 180.5,6.83333 180.5,6.16667 180.5,5.5 Z"/></g>
<g><path style="opacity:0.004" fill="#fefffe" d="M 51.5,11.5 C 52.647,15.6463 52.8136,19.9796 52,24.5C 51.501,20.1794 51.3343,15.8461 51.5,11.5 Z"/></g>
<g><path style="opacity:0.812" fill="#aaa2e6" d="M 61.5,5.5 C 59.283,4.63137 56.9496,4.29803 54.5,4.5C 54.5,13.1667 54.5,21.8333 54.5,30.5C 53.5067,21.6822 53.1734,12.6822 53.5,3.5C 56.6981,2.96438 59.3647,3.63105 61.5,5.5 Z"/></g>
<g><path style="opacity:0.956" fill="#6a58f5" d="M 227.5,4.5 C 228.5,4.5 229.5,4.5 230.5,4.5C 230.76,11.557 230.427,18.557 229.5,25.5C 227.539,18.9131 226.872,11.9131 227.5,4.5 Z"/></g>
<g><path style="opacity:0.927" fill="#7564f0" d="M 42.5,4.5 C 43.5,4.5 44.5,4.5 45.5,4.5C 45.5,4.83333 45.5,5.16667 45.5,5.5C 44.1803,8.42805 43.5136,11.7614 43.5,15.5C 43.6667,18.8333 43.8333,22.1667 44,25.5C 44.21,23.9419 44.71,22.6085 45.5,21.5C 46.0102,24.3878 45.3435,26.7211 43.5,28.5C 42.5076,20.6841 42.1743,12.6841 42.5,4.5 Z"/></g>
<g><path style="opacity:0.929" fill="#7362f1" d="M 142.5,4.5 C 145.833,4.5 149.167,4.5 152.5,4.5C 149.713,5.47667 146.713,5.81 143.5,5.5C 143.5,7.83333 143.5,10.1667 143.5,12.5C 144.587,15.0389 145.254,17.3723 145.5,19.5C 145.223,22.4475 145.556,25.2809 146.5,28C 145.207,28.49 143.873,28.6567 142.5,28.5C 142.5,20.5 142.5,12.5 142.5,4.5 Z"/></g>
<g><path style="opacity:0.054" fill="#eeeefd" d="M 23.5,18.5 C 21.5,16.8333 19.5,15.1667 17.5,13.5C 15.666,11.4946 13.9993,9.32793 12.5,7C 10.0551,6.09024 8.72175,6.92357 8.5,9.5C 6.40798,12.917 3.40798,15.2503 -0.5,16.5C -0.5,14.8333 -0.5,13.1667 -0.5,11.5C 0.847364,12.0283 2.1807,12.195 3.5,12C 6.06911,8.98768 8.73578,6.15434 11.5,3.5C 15.5832,9.22146 19.9165,13.8881 24.5,17.5C 24.3764,18.1067 24.0431,18.44 23.5,18.5 Z"/></g>
<g><path style="opacity:1" fill="#867bf1" d="M 17.5,13.5 C 16.8333,13.5 16.1667,13.5 15.5,13.5C 13.7167,10.7934 11.3834,10.1267 8.5,11.5C 8.5,10.8333 8.5,10.1667 8.5,9.5C 8.72175,6.92357 10.0551,6.09024 12.5,7C 13.9993,9.32793 15.666,11.4946 17.5,13.5 Z"/></g>
<g><path style="opacity:0.859" fill="#a99aee" d="M 114.5,8.5 C 114.5,9.16667 114.5,9.83333 114.5,10.5C 114.167,11.8333 113.833,13.1667 113.5,14.5C 113.167,14.5 112.833,14.5 112.5,14.5C 112.259,12.1016 112.926,10.1016 114.5,8.5 Z"/></g>
<g><path style="opacity:0.984" fill="#6e5bfb" d="M 120.5,9.5 C 119.5,9.5 118.5,9.5 117.5,9.5C 117.5,10.8333 117.5,12.1667 117.5,13.5C 116.907,16.5 116.074,19.5 115,22.5C 114.178,19.8832 113.678,17.2165 113.5,14.5C 113.833,13.1667 114.167,11.8333 114.5,10.5C 116.148,9.19022 117.814,7.85689 119.5,6.5C 120.386,7.32496 120.719,8.32496 120.5,9.5 Z"/></g>
<g><path style="opacity:0.953" fill="#7b6aea" d="M 211.5,4.5 C 211.244,11.2244 211.577,17.891 212.5,24.5C 213.11,25.391 213.443,26.391 213.5,27.5C 212.833,27.5 212.167,27.5 211.5,27.5C 210.662,27.1583 210.328,26.4916 210.5,25.5C 210.175,18.3134 210.509,11.3134 211.5,4.5 Z"/></g>
<g><path style="opacity:0.933" fill="#8882f2" d="M 8.5,9.5 C 8.5,10.1667 8.5,10.8333 8.5,11.5C 7.65536,12.6715 6.98869,14.0048 6.5,15.5C 4.80526,16.0114 3.1386,16.6781 1.5,17.5C 3.28818,18.2826 4.28818,19.6159 4.5,21.5C 3.18047,20.0582 1.5138,19.3915 -0.5,19.5C -0.5,18.5 -0.5,17.5 -0.5,16.5C 3.40798,15.2503 6.40798,12.917 8.5,9.5 Z"/></g>
<g><path style="opacity:0.955" fill="#a294de" d="M 41.5,4.5 C 41.8333,4.5 42.1667,4.5 42.5,4.5C 42.1743,12.6841 42.5076,20.6841 43.5,28.5C 44.209,29.404 45.209,29.7373 46.5,29.5C 46.5,29.8333 46.5,30.1667 46.5,30.5C 44.5,30.5 42.5,30.5 40.5,30.5C 40.1736,21.6506 40.507,12.9839 41.5,4.5 Z"/></g>
<g><path style="opacity:0.014" fill="#eeeafc" d="M 59.5,13.5 C 60.2341,14.7079 60.5674,16.0413 60.5,17.5C 59.8333,17.1667 59.1667,16.8333 58.5,16.5C 58.5,15.5 58.5,14.5 58.5,13.5C 58.8333,12.1667 59.1667,12.1667 59.5,13.5 Z"/></g>
<g><path style="opacity:0.91" fill="#907bf5" d="M 61.5,8.5 C 61.8333,8.5 62.1667,8.5 62.5,8.5C 62.5,8.83333 62.5,9.16667 62.5,9.5C 62.6251,13.4858 63.6251,17.1524 65.5,20.5C 64.8333,22.5 64.1667,24.5 63.5,26.5C 61.9281,23.7846 60.9281,20.7846 60.5,17.5C 60.5674,16.0413 60.2341,14.7079 59.5,13.5C 61.256,12.4479 61.9227,10.7812 61.5,8.5 Z"/></g>
<g><path style="opacity:0.892" fill="#7868f0" d="M 146.5,8.5 C 146.5,10.5 146.5,12.5 146.5,14.5C 149.625,15.4794 152.958,15.8128 156.5,15.5C 156.5,16.5 156.5,17.5 156.5,18.5C 153.167,18.5 149.833,18.5 146.5,18.5C 145.833,18.5 145.5,18.8333 145.5,19.5C 145.254,17.3723 144.587,15.0389 143.5,12.5C 144.143,10.9236 145.143,9.59026 146.5,8.5 Z"/></g>
<g><path style="opacity:0.8" fill="#c1b9eb" d="M 244.5,14.5 C 244.5,14.1667 244.5,13.8333 244.5,13.5C 247.067,13.7215 249.401,14.3882 251.5,15.5C 249.097,15.552 246.764,15.2186 244.5,14.5 Z"/></g>
<g><path style="opacity:1" fill="#6c62fc" d="M 15.5,13.5 C 12.2546,13.2934 10.2546,14.7934 9.5,18C 8.25501,18.7914 6.92167,19.2914 5.5,19.5C 5.83333,18.1667 6.16667,16.8333 6.5,15.5C 6.98869,14.0048 7.65536,12.6715 8.5,11.5C 11.3834,10.1267 13.7167,10.7934 15.5,13.5 Z"/></g>
<g><path style="opacity:0.009" fill="#fcfcff" d="M 69.5,17.5 C 69.6716,18.4916 69.3382,19.1583 68.5,19.5C 68.1667,18.5 67.5,17.8333 66.5,17.5C 66.369,16.7611 66.5357,16.0944 67,15.5C 67.7083,16.3805 68.5416,17.0472 69.5,17.5 Z"/></g>
<g><path style="opacity:0.071" fill="#efecfd" d="M 175.5,8.5 C 176.167,8.5 176.833,8.5 177.5,8.5C 178.341,10.3792 178.675,12.3792 178.5,14.5C 175.838,16.2681 172.838,16.9347 169.5,16.5C 169.5,16.1667 169.5,15.8333 169.5,15.5C 176.245,16.455 178.245,14.1217 175.5,8.5 Z"/></g>
<g><path style="opacity:0.847" fill="#c8c1ee" d="M 237.5,15.5 C 238.167,15.5 238.833,15.5 239.5,15.5C 240.167,16.5 240.833,17.5 241.5,18.5C 239.596,18.2624 238.262,17.2624 237.5,15.5 Z"/></g>
<g><path style="opacity:1" fill="#6d5ef9" d="M 15.5,13.5 C 16.1667,13.5 16.8333,13.5 17.5,13.5C 19.5,15.1667 21.5,16.8333 23.5,18.5C 21.2895,19.1228 19.2895,20.1228 17.5,21.5C 17.5,19.5 17.5,17.5 17.5,15.5C 15.8008,15.3398 14.1341,15.5065 12.5,16C 11.1667,17 11.1667,18 12.5,19C 11.5294,20.2036 10.5294,20.7036 9.5,20.5C 10.9469,21.9348 12.6136,22.9348 14.5,23.5C 14.3404,25.153 13.6737,26.4863 12.5,27.5C 10.8235,26.8166 10.1568,25.4832 10.5,23.5C 7.65601,23.6574 5.98935,22.324 5.5,19.5C 6.92167,19.2914 8.25501,18.7914 9.5,18C 10.2546,14.7934 12.2546,13.2934 15.5,13.5 Z"/></g>
<g><path style="opacity:0.914" fill="#9e8fe9" d="M 102.5,8.5 C 104.204,11.9385 105.538,15.6052 106.5,19.5C 104.241,18.656 103.241,16.9893 103.5,14.5C 102.85,12.5648 102.517,10.5648 102.5,8.5 Z"/></g>
<g><path style="opacity:0.925" fill="#8d82cd" d="M 146.5,14.5 C 146.833,14.5 147.167,14.5 147.5,14.5C 151.182,14.3347 154.848,14.5014 158.5,15C 157.92,16.3349 157.587,17.5015 157.5,18.5C 157.167,18.5 156.833,18.5 156.5,18.5C 156.5,17.5 156.5,16.5 156.5,15.5C 152.958,15.8128 149.625,15.4794 146.5,14.5 Z"/></g>
<g><path style="opacity:1" fill="#6c5af3" d="M 180.5,7.5 C 181.117,7.61071 181.617,7.94404 182,8.5C 182.497,11.146 182.664,13.8127 182.5,16.5C 181.833,16.8333 181.167,17.1667 180.5,17.5C 179.448,17.6495 178.448,17.4828 177.5,17C 178.252,16.3292 178.586,15.4959 178.5,14.5C 178.675,12.3792 178.341,10.3792 177.5,8.5C 177.804,6.20432 178.804,5.87099 180.5,7.5 Z"/></g>
<g><path style="opacity:0.91" fill="#8473f2" d="M 244.5,14.5 C 246.764,15.2186 249.097,15.552 251.5,15.5C 252.492,15.3284 253.158,15.6618 253.5,16.5C 251.143,16.3367 248.81,16.5034 246.5,17C 249.106,17.4505 250.439,18.9505 250.5,21.5C 249.833,21.5 249.5,21.1667 249.5,20.5C 247.562,18.8372 245.228,18.1706 242.5,18.5C 242.167,18.5 241.833,18.5 241.5,18.5C 240.833,17.5 240.167,16.5 239.5,15.5C 240.695,15.6775 241.862,16.0109 243,16.5C 244.03,16.1639 244.53,15.4972 244.5,14.5 Z"/></g>
<g><path style="opacity:0.922" fill="#9d8ee9" d="M 62.5,9.5 C 63.6414,12.2542 64.9748,14.9209 66.5,17.5C 66.5,18.5 66.5,19.5 66.5,20.5C 66.1667,20.5 65.8333,20.5 65.5,20.5C 63.6251,17.1524 62.6251,13.4858 62.5,9.5 Z"/></g>
<g><path style="opacity:0.945" fill="#796aea" d="M 178.5,14.5 C 178.586,15.4959 178.252,16.3292 177.5,17C 178.448,17.4828 179.448,17.6495 180.5,17.5C 180.167,18.1667 179.833,18.8333 179.5,19.5C 178.791,20.404 177.791,20.7373 176.5,20.5C 173.833,20.5 171.167,20.5 168.5,20.5C 168.5,23.5 168.5,26.5 168.5,29.5C 167.209,29.7373 166.209,29.404 165.5,28.5C 167.064,24.7659 168.397,20.7659 169.5,16.5C 172.838,16.9347 175.838,16.2681 178.5,14.5 Z"/></g>
<g><path style="opacity:0.743" fill="#d4cff4" d="M 215.5,22.5 C 214.833,16.5 214.167,10.5 213.5,4.5C 212.833,4.5 212.167,4.5 211.5,4.5C 210.509,11.3134 210.175,18.3134 210.5,25.5C 209.732,24.7375 209.232,23.7375 209,22.5C 208.333,16.8333 208.333,11.1667 209,5.5C 210.754,3.74999 212.921,3.08332 215.5,3.5C 215.5,9.83333 215.5,16.1667 215.5,22.5 Z"/></g>
<g><path style="opacity:0.849" fill="#a298e3" d="M 230.5,4.5 C 230.833,4.5 231.167,4.5 231.5,4.5C 231.666,11.5079 231.5,18.5079 231,25.5C 229.924,28.079 228.091,29.7457 225.5,30.5C 225.833,29.8333 226.167,29.1667 226.5,28.5C 227.306,27.2719 228.306,26.2719 229.5,25.5C 230.427,18.557 230.76,11.557 230.5,4.5 Z"/></g>
<g><path style="opacity:0.999" fill="#6455fa" d="M 17.5,21.5 C 16.7095,22.4013 15.7095,23.0679 14.5,23.5C 12.6136,22.9348 10.9469,21.9348 9.5,20.5C 10.5294,20.7036 11.5294,20.2036 12.5,19C 11.1667,18 11.1667,17 12.5,16C 14.1341,15.5065 15.8008,15.3398 17.5,15.5C 17.5,17.5 17.5,19.5 17.5,21.5 Z"/></g>
<g><path style="opacity:0.441" fill="#e9e7fe" d="M 76.5,14.5 C 76.5,19.8333 76.5,25.1667 76.5,30.5C 75.9612,26.388 74.9612,23.7213 73.5,22.5C 74.8333,21.5 74.8333,20.5 73.5,19.5C 73.5,18.5 73.5,17.5 73.5,16.5C 74.3149,15.5707 75.1482,14.5707 76,13.5C 76.3988,13.7284 76.5654,14.0618 76.5,14.5 Z"/></g>
<g><path style="opacity:0.287" fill="#edeafe" d="M 146.5,18.5 C 149.833,18.5 153.167,18.5 156.5,18.5C 156.833,18.5 157.167,18.5 157.5,18.5C 154.375,19.4794 151.042,19.8128 147.5,19.5C 147.5,21.5 147.5,23.5 147.5,25.5C 151.702,25.1832 155.702,25.5166 159.5,26.5C 159.167,26.5 158.833,26.5 158.5,26.5C 154.5,26.5 150.5,26.5 146.5,26.5C 146.5,23.8333 146.5,21.1667 146.5,18.5 Z"/></g>
<g><path style="opacity:0.043" fill="#e6e2fa" d="M 182.5,16.5 C 182.5,18.5 181.5,19.5 179.5,19.5C 179.833,18.8333 180.167,18.1667 180.5,17.5C 181.167,17.1667 181.833,16.8333 182.5,16.5 Z"/></g>
<g><path style="opacity:0.871" fill="#c1b7f3" d="M 242.5,18.5 C 245.228,18.1706 247.562,18.8372 249.5,20.5C 246.933,20.2785 244.599,19.6118 242.5,18.5 Z"/></g>
<g><path style="opacity:0.757" fill="#b6aee9" d="M 253.5,16.5 C 254.906,16.9731 255.573,17.9731 255.5,19.5C 254.094,19.0269 253.427,18.0269 253.5,16.5 Z"/></g>
<g><path style="opacity:0.525" fill="#e0dbfe" d="M 99.5,16.5 C 100.338,16.8417 100.672,17.5084 100.5,18.5C 99.1667,18.8333 99.1667,19.1667 100.5,19.5C 98.7354,20.4614 96.7354,20.7947 94.5,20.5C 93.8333,20.5 93.5,20.1667 93.5,19.5C 93.5,18.8333 93.8333,18.5 94.5,18.5C 96.3945,17.3961 98.0612,16.7295 99.5,16.5 Z"/></g>
<g><path style="opacity:0.251" fill="#ededfd" d="M -0.5,20.5 C -0.5,20.1667 -0.5,19.8333 -0.5,19.5C 1.5138,19.3915 3.18047,20.0582 4.5,21.5C 5.60048,22.6049 6.26714,23.9382 6.5,25.5C 5.12656,25.6567 3.79323,25.49 2.5,25C 2.95735,24.586 3.29069,24.086 3.5,23.5C 2.14819,22.4756 0.814858,21.4756 -0.5,20.5 Z"/></g>
<g><path style="opacity:0.482" fill="#e5eef8" d="M 29.5,22.5 C 27.9008,21.438 26.2341,21.438 24.5,22.5C 26.428,20.5259 28.7613,19.0259 31.5,18C 30.0977,16.6575 30.4311,15.8242 32.5,15.5C 34.0004,15.4528 35.0004,16.1195 35.5,17.5C 34.0692,19.9377 32.0692,21.6044 29.5,22.5 Z"/></g>
<g><path style="opacity:0.937" fill="#7161fa" d="M 91.5,12.5 C 92.6491,12.7911 93.3158,13.6244 93.5,15C 92.7741,16.7348 92.7741,18.2348 93.5,19.5C 93.5,20.1667 93.8333,20.5 94.5,20.5C 96.2922,21.3091 98.2922,21.8091 100.5,22C 97.3054,22.1805 94.3054,22.6805 91.5,23.5C 90.5028,23.5299 89.8361,23.0299 89.5,22C 90.3606,18.8632 91.0272,15.6965 91.5,12.5 Z"/></g>
<g><path style="opacity:0.908" fill="#7f6df9" d="M 103.5,14.5 C 103.241,16.9893 104.241,18.656 106.5,19.5C 106.5,19.8333 106.5,20.1667 106.5,20.5C 106.963,23.4824 107.296,26.4824 107.5,29.5C 106.041,29.5674 104.708,29.2341 103.5,28.5C 102.766,27.2921 102.433,25.9587 102.5,24.5C 102.384,21.1401 102.051,17.8067 101.5,14.5C 101.938,13.4937 102.604,13.4937 103.5,14.5 Z"/></g>
<g><path style="opacity:0.91" fill="#7c6de5" d="M 80.5,30.5 C 79.1667,30.5 77.8333,30.5 76.5,30.5C 76.5,25.1667 76.5,19.8333 76.5,14.5C 77.1665,19.0166 77.8331,23.6833 78.5,28.5C 79.6646,21.1893 79.8313,13.856 79,6.5C 77.0624,5.13983 75.3957,5.47316 74,7.5C 73.0989,10.5196 72.2655,13.5196 71.5,16.5C 70.8333,16.8333 70.1667,17.1667 69.5,17.5C 70.6334,13.4331 71.9668,9.43306 73.5,5.5C 75.717,4.63137 78.0504,4.29803 80.5,4.5C 80.5,13.1667 80.5,21.8333 80.5,30.5 Z"/></g>
<g><path style="opacity:1" fill="#6b59f8" d="M 76.5,14.5 C 76.5654,14.0618 76.3988,13.7284 76,13.5C 75.1482,14.5707 74.3149,15.5707 73.5,16.5C 72.8333,16.5 72.1667,16.5 71.5,16.5C 72.2655,13.5196 73.0989,10.5196 74,7.5C 75.3957,5.47316 77.0624,5.13983 79,6.5C 79.8313,13.856 79.6646,21.1893 78.5,28.5C 77.8331,23.6833 77.1665,19.0166 76.5,14.5 Z"/></g>
<g><path style="opacity:0.004" fill="#fefffe" d="M 242.5,22.5 C 241.833,21.1667 241.833,21.1667 242.5,22.5 Z"/></g>
<g><path style="opacity:0.896" fill="#8574f2" d="M 71.5,16.5 C 72.1667,16.5 72.8333,16.5 73.5,16.5C 73.5,17.5 73.5,18.5 73.5,19.5C 73.5,20.5 73.5,21.5 73.5,22.5C 73.1667,22.5 72.8333,22.5 72.5,22.5C 69.9791,24.0304 68.9791,26.3637 69.5,29.5C 67.8333,29.5 66.1667,29.5 64.5,29.5C 63.8902,28.609 63.5569,27.609 63.5,26.5C 64.1667,24.5 64.8333,22.5 65.5,20.5C 65.8333,20.5 66.1667,20.5 66.5,20.5C 67.1667,24.5 67.8333,24.5 68.5,20.5C 68.5,20.1667 68.5,19.8333 68.5,19.5C 69.3382,19.1583 69.6716,18.4916 69.5,17.5C 70.1667,17.1667 70.8333,16.8333 71.5,16.5 Z"/></g>
<g><path style="opacity:0.298" fill="#e7e4ff" d="M 66.5,20.5 C 67.1667,20.5 67.8333,20.5 68.5,20.5C 67.8333,24.5 67.1667,24.5 66.5,20.5 Z"/></g>
<g><path style="opacity:0.867" fill="#8676ee" d="M 98.5,10.5 C 99.9779,11.4475 100.978,12.7809 101.5,14.5C 102.051,17.8067 102.384,21.1401 102.5,24.5C 99.1667,24.5 95.8333,24.5 92.5,24.5C 91.8333,24.5 91.5,24.1667 91.5,23.5C 94.3054,22.6805 97.3054,22.1805 100.5,22C 98.2922,21.8091 96.2922,21.3091 94.5,20.5C 96.7354,20.7947 98.7354,20.4614 100.5,19.5C 100.5,19.1667 100.5,18.8333 100.5,18.5C 100.672,17.5084 100.338,16.8417 99.5,16.5C 98.7659,15.2921 98.4326,13.9587 98.5,12.5C 98.5,11.8333 98.5,11.1667 98.5,10.5 Z"/></g>
<g><path style="opacity:0.892" fill="#8472f2" d="M 117.5,13.5 C 117.194,16.3854 117.527,19.0521 118.5,21.5C 118.5,21.8333 118.5,22.1667 118.5,22.5C 118.5,24.5 119.5,25.5 121.5,25.5C 123.498,26.1475 125.498,26.9808 127.5,28C 124.264,29.7237 120.93,29.8904 117.5,28.5C 116.092,26.0306 114.425,23.6973 112.5,21.5C 111.377,19.0213 111.377,16.688 112.5,14.5C 112.833,14.5 113.167,14.5 113.5,14.5C 113.678,17.2165 114.178,19.8832 115,22.5C 116.074,19.5 116.907,16.5 117.5,13.5 Z"/></g>
<g><path style="opacity:0.914" fill="#6e5def" d="M 188.5,4.5 C 190.167,4.5 191.833,4.5 193.5,4.5C 193.175,12.0191 193.508,19.3524 194.5,26.5C 193.448,28.256 191.781,28.9227 189.5,28.5C 188.508,20.6841 188.174,12.6841 188.5,4.5 Z"/></g>
<g><path style="opacity:0.906" fill="#c9c3e1" d="M 240.5,23.5 C 239.5,23.5 238.5,23.5 237.5,23.5C 238.5,20.8333 239.5,20.8333 240.5,23.5 Z"/></g>
<g><path style="opacity:0.004" fill="#f9f8ff" d="M 242.5,22.5 C 243.923,24.5449 245.923,25.5449 248.5,25.5C 245.382,27.0068 242.715,26.3401 240.5,23.5C 241.492,23.6716 242.158,23.3382 242.5,22.5 Z"/></g>
<g><path style="opacity:0.871" fill="#a699e8" d="M 72.5,22.5 C 71.6295,25.1123 70.9628,27.779 70.5,30.5C 68.2646,30.7947 66.2646,30.4614 64.5,29.5C 66.1667,29.5 67.8333,29.5 69.5,29.5C 68.9791,26.3637 69.9791,24.0304 72.5,22.5 Z"/></g>
<g><path style="opacity:0.875" fill="#baaef1" d="M 112.5,21.5 C 114.425,23.6973 116.092,26.0306 117.5,28.5C 117.5,28.8333 117.5,29.1667 117.5,29.5C 114.361,27.915 112.694,25.2483 112.5,21.5 Z"/></g>
<g><path style="opacity:0.725" fill="#d5cff5" d="M 118.5,22.5 C 119.833,23.1667 120.833,24.1667 121.5,25.5C 119.5,25.5 118.5,24.5 118.5,22.5 Z"/></g>
<g><path style="opacity:0.9" fill="#7565f3" d="M 134.5,30.5 C 133.167,30.5 131.833,30.5 130.5,30.5C 130.5,29.5 130.5,28.5 130.5,27.5C 129.766,26.2921 129.433,24.9587 129.5,23.5C 130.434,22.4324 130.768,21.099 130.5,19.5C 128.5,19.5 126.5,19.5 124.5,19.5C 124.5,18.5 124.5,17.5 124.5,16.5C 127.833,16.5 131.167,16.5 134.5,16.5C 134.5,21.1667 134.5,25.8333 134.5,30.5 Z"/></g>
<g><path style="opacity:0.725" fill="#b3abe8" d="M 134.5,30.5 C 134.5,25.8333 134.5,21.1667 134.5,16.5C 131.167,16.5 127.833,16.5 124.5,16.5C 124.5,17.5 124.5,18.5 124.5,19.5C 126.5,19.5 128.5,19.5 130.5,19.5C 130.768,21.099 130.434,22.4324 129.5,23.5C 129.5,22.5 129.5,21.5 129.5,20.5C 127.5,20.5 125.5,20.5 123.5,20.5C 123.5,18.8333 123.5,17.1667 123.5,15.5C 127.5,15.5 131.5,15.5 135.5,15.5C 135.821,20.6946 135.487,25.6946 134.5,30.5 Z"/></g>
<g><path style="opacity:0.953" fill="#7f6df6" d="M 253.5,16.5 C 253.427,18.0269 254.094,19.0269 255.5,19.5C 256.833,21.8333 256.833,24.1667 255.5,26.5C 254.5,27.1667 253.5,27.8333 252.5,28.5C 251.448,28.6495 250.448,28.4828 249.5,28C 250.337,26.9887 250.67,25.8221 250.5,24.5C 250.5,23.5 250.5,22.5 250.5,21.5C 250.439,18.9505 249.106,17.4505 246.5,17C 248.81,16.5034 251.143,16.3367 253.5,16.5 Z"/></g>
<g><path style="opacity:0.953" fill="#7664f0" d="M 213.5,4.5 C 214.167,10.5 214.833,16.5 215.5,22.5C 216.167,23.5 216.833,24.5 217.5,25.5C 218.567,27.8795 217.567,28.8795 214.5,28.5C 213.833,28.5 213.5,28.1667 213.5,27.5C 213.443,26.391 213.11,25.391 212.5,24.5C 213.491,18.021 213.824,11.3543 213.5,4.5 Z"/></g>
<g><path style="opacity:0.984" fill="#6f5dee" d="M 227.5,4.5 C 226.872,11.9131 227.539,18.9131 229.5,25.5C 228.306,26.2719 227.306,27.2719 226.5,28.5C 224.801,28.6602 223.134,28.4935 221.5,28C 222.381,27.2917 223.047,26.4584 223.5,25.5C 224.458,25.0472 225.292,24.3805 226,23.5C 226.172,16.9867 226.672,10.6534 227.5,4.5 Z"/></g>
<g><path style="opacity:0.4" fill="#e1ddf4" d="M 237.5,23.5 C 237.167,24.8333 236.833,26.1667 236.5,27.5C 235.147,25.8716 235.481,24.5383 237.5,23.5 Z"/></g>
<g><path style="opacity:0.053" fill="#fdfefe" d="M -0.5,26.5 C 0.833333,27.1667 0.833333,27.8333 -0.5,28.5C -0.5,27.8333 -0.5,27.1667 -0.5,26.5 Z"/></g>
<g><path style="opacity:0.159" fill="#dadefb" d="M 23.5,18.5 C 22.708,20.2572 21.3747,21.5905 19.5,22.5C 21.0026,23.0522 22.6693,23.0522 24.5,22.5C 26.2341,21.438 27.9008,21.438 29.5,22.5C 28.5291,23.9621 28.8624,25.2954 30.5,26.5C 30.5,26.8333 30.5,27.1667 30.5,27.5C 28.8514,26.286 27.1848,24.9527 25.5,23.5C 24.0288,25.783 22.3621,27.783 20.5,29.5C 19.8333,28.8333 19.1667,28.1667 18.5,27.5C 17.609,28.1098 16.609,28.4431 15.5,28.5C 14.5,28.5 13.5,28.5 12.5,28.5C 12.5,28.1667 12.5,27.8333 12.5,27.5C 13.6737,26.4863 14.3404,25.153 14.5,23.5C 15.7095,23.0679 16.7095,22.4013 17.5,21.5C 19.2895,20.1228 21.2895,19.1228 23.5,18.5 Z"/></g>
<g><path style="opacity:0.867" fill="#9583ef" d="M 91.5,11.5 C 91.5,11.8333 91.5,12.1667 91.5,12.5C 91.0272,15.6965 90.3606,18.8632 89.5,22C 89.8361,23.0299 90.5028,23.5299 91.5,23.5C 91.5,24.1667 91.8333,24.5 92.5,24.5C 92.5533,28.1382 90.8866,30.1382 87.5,30.5C 86.7682,27.9325 86.7682,25.2658 87.5,22.5C 88.0653,18.4632 89.3987,14.7966 91.5,11.5 Z"/></g>
<g><path style="opacity:0.859" fill="#a093e1" d="M 106.5,20.5 C 108.21,23.4295 109.543,26.5961 110.5,30C 109.333,30.1667 108.167,30.3333 107,30.5C 105.319,30.3917 104.152,29.7251 103.5,28.5C 104.708,29.2341 106.041,29.5674 107.5,29.5C 107.296,26.4824 106.963,23.4824 106.5,20.5 Z"/></g>
<g><path style="opacity:0.878" fill="#a599dd" d="M 176.5,20.5 C 174.393,21.4682 172.059,21.8016 169.5,21.5C 169.665,24.8499 169.498,28.1832 169,31.5C 167.644,30.6198 166.144,30.2865 164.5,30.5C 164.5,29.8333 164.5,29.1667 164.5,28.5C 164.833,28.5 165.167,28.5 165.5,28.5C 166.209,29.404 167.209,29.7373 168.5,29.5C 168.5,26.5 168.5,23.5 168.5,20.5C 171.167,20.5 173.833,20.5 176.5,20.5 Z"/></g>
<g><path style="opacity:0.918" fill="#7575f6" d="M 6.5,15.5 C 6.16667,16.8333 5.83333,18.1667 5.5,19.5C 5.98935,22.324 7.65601,23.6574 10.5,23.5C 10.1568,25.4832 10.8235,26.8166 12.5,27.5C 12.5,27.8333 12.5,28.1667 12.5,28.5C 11.4324,29.4345 10.099,29.7678 8.5,29.5C 8.84316,27.5168 8.17649,26.1834 6.5,25.5C 6.26714,23.9382 5.60048,22.6049 4.5,21.5C 4.28818,19.6159 3.28818,18.2826 1.5,17.5C 3.1386,16.6781 4.80526,16.0114 6.5,15.5 Z"/></g>
<g><path style="opacity:0.969" fill="#6246f0" d="M 30.5,27.5 C 30.6107,28.1174 30.944,28.6174 31.5,29C 29,30.1667 27.1667,32 26,34.5C 24.2962,32.6266 22.4628,30.9599 20.5,29.5C 22.3621,27.783 24.0288,25.783 25.5,23.5C 27.1848,24.9527 28.8514,26.286 30.5,27.5 Z"/></g>
<g><path style="opacity:0.199" fill="#f8f7ff" d="M 130.5,27.5 C 130.5,28.5 130.5,29.5 130.5,30.5C 129.833,30.1667 129.167,29.8333 128.5,29.5C 128.833,28.5 129.5,27.8333 130.5,27.5 Z"/></g>
<g><path style="opacity:0.885" fill="#796bed" d="M 146.5,18.5 C 146.5,21.1667 146.5,23.8333 146.5,26.5C 150.5,26.5 154.5,26.5 158.5,26.5C 158.5,27.5 158.5,28.5 158.5,29.5C 152.974,29.8214 147.64,29.4881 142.5,28.5C 143.873,28.6567 145.207,28.49 146.5,28C 145.556,25.2809 145.223,22.4475 145.5,19.5C 145.5,18.8333 145.833,18.5 146.5,18.5 Z"/></g>
<g><path style="opacity:0.929" fill="#8d7beb" d="M 217.5,25.5 C 219.5,25.5 221.5,25.5 223.5,25.5C 223.047,26.4584 222.381,27.2917 221.5,28C 223.134,28.4935 224.801,28.6602 226.5,28.5C 226.167,29.1667 225.833,29.8333 225.5,30.5C 225.167,30.5 224.833,30.5 224.5,30.5C 220.84,30.8412 217.507,30.1745 214.5,28.5C 217.567,28.8795 218.567,27.8795 217.5,25.5 Z"/></g>
<g><path style="opacity:0.443" fill="#d9d4f7" d="M 236.5,27.5 C 238.027,27.427 239.027,28.0937 239.5,29.5C 237.973,29.573 236.973,28.9063 236.5,27.5 Z"/></g>
<g><path style="opacity:0.859" fill="#8e7cee" d="M 237.5,23.5 C 238.5,23.5 239.5,23.5 240.5,23.5C 242.715,26.3401 245.382,27.0068 248.5,25.5C 249.167,25.1667 249.833,24.8333 250.5,24.5C 250.67,25.8221 250.337,26.9887 249.5,28C 250.448,28.4828 251.448,28.6495 252.5,28.5C 252.5,28.8333 252.5,29.1667 252.5,29.5C 248.196,32.0901 243.863,32.0901 239.5,29.5C 239.027,28.0937 238.027,27.427 236.5,27.5C 236.833,26.1667 237.167,24.8333 237.5,23.5 Z"/></g>
<g><path style="opacity:0.039" fill="#e8e4fb" d="M 255.5,26.5 C 255.5,28.5 254.5,29.5 252.5,29.5C 252.5,29.1667 252.5,28.8333 252.5,28.5C 253.5,27.8333 254.5,27.1667 255.5,26.5 Z"/></g>
<g><path style="opacity:0.827" fill="#aea4df" d="M 87.5,22.5 C 86.7682,25.2658 86.7682,27.9325 87.5,30.5C 86.325,30.719 85.325,30.3857 84.5,29.5C 85.3299,26.9836 86.3299,24.6502 87.5,22.5 Z"/></g>
<g><path style="opacity:0.824" fill="#aea1eb" d="M 129.5,23.5 C 129.433,24.9587 129.766,26.2921 130.5,27.5C 129.5,27.8333 128.833,28.5 128.5,29.5C 124.801,32.0652 121.135,32.0652 117.5,29.5C 117.5,29.1667 117.5,28.8333 117.5,28.5C 120.93,29.8904 124.264,29.7237 127.5,28C 125.498,26.9808 123.498,26.1475 121.5,25.5C 124.513,25.8928 127.18,25.2261 129.5,23.5 Z"/></g>
<g><path style="opacity:0.876" fill="#9f93da" d="M 141.5,4.5 C 141.833,4.5 142.167,4.5 142.5,4.5C 142.5,12.5 142.5,20.5 142.5,28.5C 147.64,29.4881 152.974,29.8214 158.5,29.5C 158.5,28.5 158.5,27.5 158.5,26.5C 158.833,26.5 159.167,26.5 159.5,26.5C 159.5,27.8333 159.5,29.1667 159.5,30.5C 153.123,30.5836 146.956,30.5836 141,30.5C 140.176,21.6567 140.343,12.9901 141.5,4.5 Z"/></g>
<g><path style="opacity:0.871" fill="#b1a8df" d="M 188.5,4.5 C 188.174,12.6841 188.508,20.6841 189.5,28.5C 194.305,29.4872 199.305,29.8205 204.5,29.5C 204.5,28.5 204.5,27.5 204.5,26.5C 204.833,26.5 205.167,26.5 205.5,26.5C 206.434,27.5676 206.768,28.901 206.5,30.5C 200.123,30.5836 193.956,30.5836 188,30.5C 187.176,21.6567 187.343,12.9901 188.5,4.5 Z"/></g>
<g><path style="opacity:0.854" fill="#796aee" d="M 194.5,26.5 C 197.833,26.5 201.167,26.5 204.5,26.5C 204.5,27.5 204.5,28.5 204.5,29.5C 199.305,29.8205 194.305,29.4872 189.5,28.5C 191.781,28.9227 193.448,28.256 194.5,26.5 Z"/></g>
<g><path style="opacity:0.286" fill="#e2e9fa" d="M 6.5,25.5 C 8.17649,26.1834 8.84316,27.5168 8.5,29.5C 10.099,29.7678 11.4324,29.4345 12.5,28.5C 13.5,28.5 14.5,28.5 15.5,28.5C 14.1664,29.6521 12.6664,30.6521 11,31.5C 7.27306,31.1817 3.43972,31.1817 -0.5,31.5C -0.5,30.8333 -0.5,30.1667 -0.5,29.5C 2.42455,29.5402 5.09121,28.7068 7.5,27C 6.94404,26.6174 6.61071,26.1174 6.5,25.5 Z"/></g>
<g><path style="opacity:0.261" fill="#e3dff7" d="M 211.5,27.5 C 212.167,27.5 212.833,27.5 213.5,27.5C 213.5,28.1667 213.833,28.5 214.5,28.5C 217.507,30.1745 220.84,30.8412 224.5,30.5C 222.034,31.6341 219.367,31.8007 216.5,31C 214.119,30.7767 212.453,29.61 211.5,27.5 Z"/></g>
<g><path style="opacity:0.051" fill="#ede9fd" d="M 18.5,27.5 C 19.1667,28.1667 19.8333,28.8333 20.5,29.5C 22.4628,30.9599 24.2962,32.6266 26,34.5C 27.1667,32 29,30.1667 31.5,29C 30.944,28.6174 30.6107,28.1174 30.5,27.5C 30.5,27.1667 30.5,26.8333 30.5,26.5C 31.1499,26.1961 31.8165,25.8627 32.5,25.5C 33.6309,27.0745 33.7975,28.7412 33,30.5C 30.4201,31.7012 28.2535,33.3679 26.5,35.5C 22.7752,33.7754 20.1086,31.1088 18.5,27.5 Z"/></g>
</svg>
